<?xml version="1.0" encoding="UTF-8"?>
<svg version="1.1" xmlns="http://www.w3.org/2000/svg" width="500" height="500">
<path d="M0 0 C165 0 330 0 500 0 C500 165 500 330 500 500 C335 500 170 500 0 500 C0 335 0 170 0 0 Z " fill="#FEFEFE" transform="translate(0,0)"/>
<path d="M0 0 C1.67542976 0.28604898 3.34385343 0.61781233 5 1 C5.66666667 4.33333333 6.33333333 7.66666667 7 11 C3.85882286 11.81062636 1.45980426 11.96457733 -1.8125 11.75 C-18.53604817 11.58248533 -34.76585615 22.16600239 -46.34375 33.2421875 C-57.24507017 44.62884042 -66.18922867 60.90898864 -66.125 77.0625 C-66.15410794 80.77414157 -66.15410794 80.77414157 -65.375 83.375 C-65.25125 83.91125 -65.1275 84.4475 -65 85 C-65.99 85.99 -65.99 85.99 -67 87 C-69.625 86.625 -69.625 86.625 -72 86 C-72.1597014 83.20522548 -72.11128846 81.27098287 -71.0390625 78.66015625 C-69.96335645 75.906187 -69.59451637 73.55338915 -69.25 70.625 C-66.23834272 51.76739209 -54.98230549 34.45139225 -39.9375 22.875 C-27.39056572 14.21164062 -14.19908191 8.7271684 1 7 C0.505 6.01 0.505 6.01 0 5 C-23.72088816 8.49421466 -43.17423087 17.59277635 -58.05859375 37.16796875 C-71.71376761 57.08748797 -75.98892535 79.16535218 -71.76953125 102.93359375 C-70.63403444 107.45828915 -69.00383926 111.72244862 -67.21875 116.02734375 C-66.00691691 118.98312894 -64.97859774 121.96000423 -64 125 C-63.34 125 -62.68 125 -62 125 C-61.34 123.68 -60.68 122.36 -60 121 C-58.1875 121.0625 -58.1875 121.0625 -56 122 C-55.35015072 123.6075219 -54.70657821 125.21784735 -54.09375 126.83984375 C-46.32415384 142.18479616 -28.56664544 151.86281315 -13 157 C3.89674641 162.26829088 24.31191956 159.46095918 40 152 C54.60964335 144.24521428 65.08452576 133.46210707 73 119 C73.4021875 118.278125 73.804375 117.55625 74.21875 116.8125 C75.20879185 114.86005668 75.20879185 114.86005668 74.9375 111.9375 C75 109 75 109 76.5 107.125 C76.995 106.75375 77.49 106.3825 78 106 C78.61875 106.33 79.2375 106.66 79.875 107 C81.91018344 108.14193235 81.91018344 108.14193235 84 108 C86.21211746 100.94887561 86.20177072 94.35342179 86 87 C86.99 88.485 86.99 88.485 88 90 C88.99 90.66 89.98 91.32 91 92 C88.83700485 108.64476264 83.64190913 122.16723067 74 136 C76.97 136.99 76.97 136.99 80 138 C79.875 140.25 79.875 140.25 79 143 C77.62370195 143.97347911 76.2334012 144.93284127 74.78125 145.7890625 C72.69353002 147.20834582 71.15911094 148.84187472 69.4375 150.6875 C54.37910966 166.06079964 32.72642233 174.97653832 11.34545898 175.24194336 C-11.72791239 175.29856723 -30.47834876 170.42160911 -49.125 156.40234375 C-51.32298766 154.75843215 -53.63067262 153.38210764 -56 152 C-55.67 150.68 -55.34 149.36 -55 148 C-53.35 148 -51.7 148 -50 148 C-50.804375 147.0925 -51.60875 146.185 -52.4375 145.25 C-59.39978727 137.08333603 -65.65800952 128.86220952 -70 119 C-70.66 120.65 -71.32 122.3 -72 124 C-73.65 124 -75.3 124 -77 124 C-77.12375 123.360625 -77.2475 122.72125 -77.375 122.0625 C-77.85260808 119.72222042 -78.35325179 117.39297533 -78.875 115.0625 C-79.04515625 114.27359375 -79.2153125 113.4846875 -79.390625 112.671875 C-79.81813538 110.79740642 -80.29100501 108.93298163 -80.796875 107.078125 C-86.63087134 84.07236584 -82.47911729 61.95823459 -72 41 C-71.30028027 39.01132287 -70.62335603 37.01391949 -70 35 C-68.35 35.33 -66.7 35.66 -65 36 C-64.67 36.99 -64.34 37.98 -64 39 C-63.27296875 38.10539062 -62.5459375 37.21078125 -61.796875 36.2890625 C-45.80935735 16.91962166 -26.57537696 3.5073899 -1 1 C-0.67 0.67 -0.34 0.34 0 0 Z " fill="#F9FCFE" transform="translate(245,127)"/>
<path d="M0 0 C1.67542976 0.28604898 3.34385343 0.61781233 5 1 C5.66666667 4.33333333 6.33333333 7.66666667 7 11 C3.85882286 11.81062636 1.45980426 11.96457733 -1.8125 11.75 C-18.53604817 11.58248533 -34.76585615 22.16600239 -46.34375 33.2421875 C-57.24507017 44.62884042 -66.18922867 60.90898864 -66.125 77.0625 C-66.15410794 80.77414157 -66.15410794 80.77414157 -65.375 83.375 C-65.25125 83.91125 -65.1275 84.4475 -65 85 C-65.99 85.99 -65.99 85.99 -67 87 C-69.625 86.625 -69.625 86.625 -72 86 C-72.1597014 83.20522548 -72.11128846 81.27098287 -71.0390625 78.66015625 C-69.96335645 75.906187 -69.59451637 73.55338915 -69.25 70.625 C-66.23834272 51.76739209 -54.98230549 34.45139225 -39.9375 22.875 C-27.39056572 14.21164062 -14.19908191 8.7271684 1 7 C0.505 6.01 0.505 6.01 0 5 C-23.72088816 8.49421466 -43.17423087 17.59277635 -58.05859375 37.16796875 C-71.68678421 57.04812585 -76.07558168 79.23031579 -71.75 102.9609375 C-67.44392273 120.40952143 -58.45202294 133.54797706 -46 146 C-44.68252676 146.69748583 -43.35085807 147.36959957 -42 148 C-42.66 148.33 -43.32 148.66 -44 149 C-45.13350534 151.01669827 -45.13350534 151.01669827 -46 153 C-46.495 152.175 -46.99 151.35 -47.5 150.5 C-49.29333495 147.78168176 -51.30177817 145.7095308 -53.6875 143.5 C-60.72541267 136.67296112 -65.77291273 127.77420637 -70 119 C-70.66 120.65 -71.32 122.3 -72 124 C-73.65 124 -75.3 124 -77 124 C-77.12375 123.360625 -77.2475 122.72125 -77.375 122.0625 C-77.85260808 119.72222042 -78.35325179 117.39297533 -78.875 115.0625 C-79.04515625 114.27359375 -79.2153125 113.4846875 -79.390625 112.671875 C-79.81813538 110.79740642 -80.29100501 108.93298163 -80.796875 107.078125 C-86.63087134 84.07236584 -82.47911729 61.95823459 -72 41 C-71.30028027 39.01132287 -70.62335603 37.01391949 -70 35 C-68.35 35.33 -66.7 35.66 -65 36 C-64.67 36.99 -64.34 37.98 -64 39 C-63.27296875 38.10539062 -62.5459375 37.21078125 -61.796875 36.2890625 C-45.80935735 16.91962166 -26.57537696 3.5073899 -1 1 C-0.67 0.67 -0.34 0.34 0 0 Z " fill="#66B7E8" transform="translate(245,127)"/>
<path d="M0 0 C1.65 0.33 3.3 0.66 5 1 C6.4308218 6.3156229 5.50405094 8.72589846 2.8125 13.4375 C-1.14515045 20.71748867 -3.20873507 27.92004689 -5 36 C-5.19335938 36.81855469 -5.38671875 37.63710937 -5.5859375 38.48046875 C-7.7443141 51.61398671 -5.85242032 66.77547987 -1.1875 79.1875 C0.12574137 83.40369596 -0.09393769 85.0875563 -2 89 C-3.65 89 -5.3 89 -7 89 C-7.12375 88.360625 -7.2475 87.72125 -7.375 87.0625 C-7.85260808 84.72222042 -8.35325179 82.39297533 -8.875 80.0625 C-9.04515625 79.27359375 -9.2153125 78.4846875 -9.390625 77.671875 C-9.81813538 75.79740642 -10.29100501 73.93298163 -10.796875 72.078125 C-16.63087134 49.07236584 -12.47911729 26.95823459 -2 6 C-1.30028027 4.01132287 -0.62335603 2.01391949 0 0 Z " fill="#F5FAFD" transform="translate(175,162)"/>
<path d="M0 0 C-0.3125 1.9375 -0.3125 1.9375 -1 4 C-4 5 -4 5 -7.0625 4.875 C-18.53094725 5.23907769 -28.48891128 10.97645736 -36.3125 19.1875 C-46.34121202 31.25490297 -48.97315688 43.69632327 -48 59 C-46.40286574 70.94946813 -40.57556761 82.47495798 -31 90 C-27.78684509 92.27621437 -24.49973511 94.19820759 -21 96 C-19.82050781 96.62455078 -19.82050781 96.62455078 -18.6171875 97.26171875 C-7.8986807 102.04976646 6.25308067 101.84531207 17.1875 97.875 C21.86032746 95.7875238 25.99162871 93.21757567 30 90.0390625 C32.66910697 88.65237802 34.18216212 89.16834646 37 90 C36.01 90.66 35.02 91.32 34 92 C32.8553125 92.78503906 32.8553125 92.78503906 31.6875 93.5859375 C18.42279185 102.41622287 4.84027902 105.94749733 -11.0390625 103.5390625 C-25.1341706 100.08637031 -36.60730394 91.70787711 -44.4375 79.5625 C-47.54465411 74.20641782 -49.71126 69.04962248 -51 63 C-51.18046875 62.2059375 -51.3609375 61.411875 -51.546875 60.59375 C-53.97459068 46.69717057 -50.07607429 33.22718974 -42.42578125 21.609375 C-34.75252518 11.12098305 -24.38402524 4.61200736 -12 1 C-11.319375 0.76539063 -10.63875 0.53078125 -9.9375 0.2890625 C-6.2798899 -0.92488568 -3.69964982 -1.12110601 0 0 Z " fill="#64B6E8" transform="translate(252,160)"/>
<path d="M0 0 C0.99 0.33 1.98 0.66 3 1 C-1.10160387 9.8953534 -5.38155576 17.66327498 -12 25 C-12.60328125 25.69609375 -13.2065625 26.3921875 -13.828125 27.109375 C-27.06651119 41.46023062 -46.5521865 48.97448656 -65.70703125 50.24609375 C-87.52616315 50.65505212 -106.8507361 43.21324645 -122.78515625 28.234375 C-125.47639228 25.51940673 -128.00954173 22.71316848 -130.45703125 19.77734375 C-131.88249323 18.1353559 -133.37039026 16.74566364 -135 15.3125 C-137 13 -137 13 -136.8125 10.1875 C-136.544375 9.465625 -136.27625 8.74375 -136 8 C-134.1875 8.0625 -134.1875 8.0625 -132 9 C-131.35015072 10.6075219 -130.70657821 12.21784735 -130.09375 13.83984375 C-122.32415384 29.18479616 -104.56664544 38.86281315 -89 44 C-72.10325359 49.26829088 -51.68808044 46.46095918 -36 39 C-19.04312696 29.99930685 -8.35844857 17.04817712 0 0 Z " fill="#64B6E8" transform="translate(321,240)"/>
<path d="M0 0 C2.475 0.495 2.475 0.495 5 1 C4.67 2.32 4.34 3.64 4 5 C3.05125 5.165 2.1025 5.33 1.125 5.5 C-9.80354447 8.64140347 -18.29019372 19.69114899 -23.6875 29.125 C-31.31394036 44.0687007 -33.74154034 59.99798824 -28.97265625 76.234375 C-23.09257982 92.95362845 -13.56281023 105.39442955 2 114 C5.27618387 115.53556216 8.57843264 116.82806901 12 118 C13.175625 118.4125 14.35125 118.825 15.5625 119.25 C19.77389412 120.16884963 23.7105429 120.17507988 28 120 C27.505 121.98 27.505 121.98 27 124 C7.70119027 122.43230957 -8.10956945 114.83843815 -20.8984375 99.93359375 C-29.52649561 87.88959441 -34.59167647 74.47043333 -34.375 59.625 C-34.3586853 58.10447021 -34.3586853 58.10447021 -34.34204102 56.55322266 C-33.96970292 39.07159785 -27.33462922 24.54272879 -15 12 C-4.70496557 3 -4.70496557 3 -1 3 C-0.67 2.01 -0.34 1.02 0 0 Z " fill="#60B5E7" transform="translate(222,153)"/>
<path d="M0 0 C-0.33 0.66 -0.66 1.32 -1 2 C-3.23318928 2.51649966 -5.48892234 2.9364228 -7.75 3.3125 C-28.14050141 7.04535396 -46.11781365 17.8312477 -58 35 C-64.96174937 45.64234638 -68.91750352 55.95679686 -70.96191406 68.43066406 C-71.58657791 72.18797052 -72.43021282 75.52500103 -74 79 C-76.85335999 74.71996002 -76.43268488 70.72311931 -75.65234375 65.81201172 C-72.15449569 49.09068133 -65.49723221 35.67859919 -54 23 C-53.47277344 22.37996094 -52.94554687 21.75992188 -52.40234375 21.12109375 C-40.61595203 8.12893305 -23.43854395 0.87796826 -6.453125 -1.96875 C-3.71709019 -2.00360395 -2.30513357 -1.42185809 0 0 Z " fill="#F3F9FD" transform="translate(247,133)"/>
<path d="M0 0 C-1 2 -1 2 -3.0625 3.125 C-5.72916462 4.82712635 -7.36180633 6.34667101 -9.5 8.625 C-24.58814407 24.02453166 -46.22476616 32.97593241 -67.65454102 33.24194336 C-90.72791239 33.29856723 -109.47834876 28.42160911 -128.125 14.40234375 C-130.32298766 12.75843215 -132.63067262 11.38210764 -135 10 C-134.67 8.68 -134.34 7.36 -134 6 C-131.625 6.25 -131.625 6.25 -129 7 C-128.74605469 7.58523438 -128.49210938 8.17046875 -128.23046875 8.7734375 C-126.4588026 11.97930958 -123.72317499 13.49429875 -120.6875 15.375 C-119.75188232 15.9620874 -119.75188232 15.9620874 -118.79736328 16.56103516 C-98.0120516 29.33867564 -74.90760106 33.11783509 -51 28 C-34.21939526 23.1664781 -19.85591561 14.82804793 -8.23828125 1.72265625 C-5.35782841 -0.49423677 -3.54619863 -0.32976096 0 0 Z " fill="#62B5E8" transform="translate(324,269)"/>
<path d="M0 0 C1.65 0.33 3.3 0.66 5 1 C4.99097656 1.55945313 4.98195312 2.11890625 4.97265625 2.6953125 C5.31468994 11.94509303 9.13951183 20.6717735 15.2890625 27.56640625 C20.88823189 32.65060187 25.27928491 36.17157145 33 36 C33.66 36.66 34.32 37.32 35 38 C34.9375 40.5 34.9375 40.5 34 43 C31.765625 44.30078125 31.765625 44.30078125 29 45 C17.62693744 41.41862085 8.32545832 31.68183095 2.40234375 21.703125 C-0.72741876 15.67026802 -2.28425401 9.72801234 -3 3 C-2.34 3 -1.68 3 -1 3 C-0.67 2.01 -0.34 1.02 0 0 Z " fill="#F4F9FD" transform="translate(206,214)"/>
<path d="M0 0 C1.72766602 0.01353516 1.72766602 0.01353516 3.49023438 0.02734375 C6.30621193 0.05071286 9.12174158 0.08347435 11.9375 0.125 C12.9275 2.105 12.9275 2.105 13.9375 4.125 C13.2775 4.785 12.6175 5.445 11.9375 6.125 C8.40178571 5.58928571 8.40178571 5.58928571 6.9375 4.125 C-5.60262907 2.92680189 -17.8663769 2.92939255 -29.0625 9.125 C-30.0215625 9.63289062 -30.980625 10.14078125 -31.96875 10.6640625 C-44.95402285 18.19123989 -52.83154676 29.74516018 -57.23828125 43.90234375 C-58.36248352 48.77135098 -58.35554855 53.58680483 -58.3125 58.5625 C-58.32023438 59.45259766 -58.32796875 60.34269531 -58.3359375 61.25976562 C-58.36081201 69.90085207 -58.36081201 69.90085207 -56.0625 78.125 C-54.06646465 79.40288426 -54.06646465 79.40288426 -52.0625 80.125 C-52.3925 81.445 -52.7225 82.765 -53.0625 84.125 C-53.7225 82.805 -54.3825 81.485 -55.0625 80.125 C-56.0525 80.125 -57.0425 80.125 -58.0625 80.125 C-63.90214259 65.13484602 -63.89822483 50.09031912 -57.84375 35.109375 C-51.02123254 20.32725384 -39.59930585 8.82056365 -24.29467773 2.90795898 C-16.22038649 0.07581942 -8.5023207 -0.12755934 0 0 Z " fill="#62B5E8" transform="translate(256.0625,153.875)"/>
<path d="M0 0 C0 0.66 0 1.32 0 2 C-2.01171875 3.5859375 -2.01171875 3.5859375 -4.6875 5.375 C-17.82768293 14.21298971 -26.27892271 26.19698249 -29.609375 41.8671875 C-30.81563403 51.54138491 -31.64051069 64.11723141 -27 73 C-24.98800617 74.31483816 -24.98800617 74.31483816 -23 75 C-23 76.65 -23 78.3 -23 80 C-24.98 80 -26.96 80 -29 80 C-35.8868133 66.15951113 -37.52855884 50.47011963 -32.875 35.625 C-27.76772246 20.63518578 -19.22617921 8.63690837 -5.97265625 -0.20703125 C-3.5646136 -1.17501671 -2.39864058 -0.87467207 0 0 Z " fill="#F0F8FC" transform="translate(225,159)"/>
<path d="M0 0 C0.66257812 0.56332031 1.32515625 1.12664062 2.0078125 1.70703125 C3.87990461 3.1913888 5.70652051 4.19963712 7.875 5.1875 C7.38 7.6625 7.38 7.6625 6.875 10.1875 C5 9.9375 5 9.9375 2.875 9.1875 C2.59398437 8.58292969 2.31296875 7.97835937 2.0234375 7.35546875 C-2.58088268 -1.33636016 -17.08045544 -6.36561575 -25.9375 -9.125 C-45.26560446 -13.94722484 -64.08745936 -10.98823938 -81.125 -0.8125 C-84.97804729 1.99565311 -88.60521526 4.97297092 -92.125 8.1875 C-92.97964844 8.96287109 -92.97964844 8.96287109 -93.8515625 9.75390625 C-95.78522319 11.93075739 -96.32829783 14.42968479 -97.125 17.1875 C-98.775 17.1875 -100.425 17.1875 -102.125 17.1875 C-101.795 16.5275 -101.465 15.8675 -101.125 15.1875 C-100.135 15.1875 -99.145 15.1875 -98.125 15.1875 C-98.104375 14.506875 -98.08375 13.82625 -98.0625 13.125 C-96.64358565 8.67906836 -93.48153803 6.30634327 -90.125 3.1875 C-88.949375 1.9190625 -88.949375 1.9190625 -87.75 0.625 C-63.83225013 -21.58433917 -24.77497218 -19.39965196 0 0 Z " fill="#65B7E8" transform="translate(296.125,155.8125)"/>
<path d="M0 0 C0.66 0.99 1.32 1.98 2 3 C2.99 3.66 3.98 4.32 5 5 C2.24076181 26.23299484 -5.84779258 43.59053948 -21 59 C-21.68707031 59.69996094 -22.37414062 60.39992188 -23.08203125 61.12109375 C-29.72438904 67.44304096 -38.25079032 73.08359677 -47 76 C-47.66 76.99 -48.32 77.98 -49 79 C-50.32 78.67 -51.64 78.34 -53 78 C-53.5625 76.0625 -53.5625 76.0625 -54 74 C-53 73 -53 73 -49.1875 72.375 C-38.31913772 70.01156249 -29.6976326 62.65952551 -22 55 C-21.23945313 54.27425781 -20.47890625 53.54851562 -19.6953125 52.80078125 C-14.7976899 47.8099513 -11.22669596 42.40529892 -7.875 36.3125 C-7.4720874 35.59964844 -7.0691748 34.88679688 -6.65405273 34.15234375 C-4.09749631 29.26519346 -3.66282198 26.36982543 -5 21 C-4.01 21 -3.02 21 -2 21 C0.21211746 13.94887561 0.20177072 7.35342179 0 0 Z " fill="#64B6E8" transform="translate(331,214)"/>
<path d="M0 0 C1.65 0.33 3.3 0.66 5 1 C4.6875 2.9375 4.6875 2.9375 4 5 C3.01 5.33 2.02 5.66 1 6 C-0.07908706 8.71281313 -0.07908706 8.71281313 -1 12 C-2.24179796 15.03700589 -3.49117269 18.06861381 -4.7890625 21.08203125 C-8.68462784 30.50615143 -9.34209139 39.75474338 -9.3125 49.875 C-9.32861328 50.96941406 -9.34472656 52.06382812 -9.36132812 53.19140625 C-9.36532771 59.95070662 -8.54912634 65.92246373 -6.70019531 72.42749023 C-6.07995509 74.70624589 -5.69704817 76.84593701 -5.4375 79.1875 C-5.293125 80.115625 -5.14875 81.04375 -5 82 C-4.34 82.33 -3.68 82.66 -3 83 C-4.98 83.495 -4.98 83.495 -7 84 C-7.81942948 81.48123707 -8.63065069 78.9602933 -9.4375 76.4375 C-9.66759766 75.73302734 -9.89769531 75.02855469 -10.13476562 74.30273438 C-17.46719513 51.24277491 -12.55791583 27.11583166 -2 6 C-1.30028027 4.01132287 -0.62335603 2.01391949 0 0 Z " fill="#62B5E8" transform="translate(175,162)"/>
<path d="M0 0 C2.475 0.495 2.475 0.495 5 1 C5.125 3.375 5.125 3.375 5 6 C4.34 6.66 3.68 7.32 3 8 C2.5405588 9.86483709 2.5405588 9.86483709 2.25 12 C-0.24214142 24.03569074 -9.20192162 33.27582856 -19 40 C-19.66 40.99 -20.32 41.98 -21 43 C-22.32 42.67 -23.64 42.34 -25 42 C-25.33 40.68 -25.66 39.36 -26 38 C-24.2984375 37.505 -24.2984375 37.505 -22.5625 37 C-12.64126363 33.16121773 -7.78492105 25.66850652 -3.3125 16.46484375 C-1.53696774 11.77764996 -0.38814136 7.83557593 -2 3 C-1.34 2.01 -0.68 1.02 0 0 Z " fill="#63B6E8" transform="translate(294,212)"/>
<path d="M0 0 C3.28615925 3.08077429 6.09499446 6.32697736 8.875 9.875 C12.31790273 14.24208456 15.98229312 18.1653785 20 22 C21.00230149 22.9976932 22.00299848 23.99701048 23 25 C22.34 26.98 21.68 28.96 21 31 C17.625 31.125 17.625 31.125 14 31 C13.34 30.34 12.68 29.68 12 29 C12 27.68 12 26.36 12 25 C12.99 25.33 13.98 25.66 15 26 C15.33 26.99 15.66 27.98 16 29 C16.66 27.68 17.32 26.36 18 25 C17.27296875 24.39865234 17.27296875 24.39865234 16.53125 23.78515625 C9.80400288 18.07993321 3.15627084 11.88392625 -1 4 C-0.6875 1.6875 -0.6875 1.6875 0 0 Z " fill="#F5FAFD" transform="translate(183,250)"/>
<path d="M0 0 C1.67542976 0.28604898 3.34385343 0.61781233 5 1 C4.99097656 1.55945313 4.98195312 2.11890625 4.97265625 2.6953125 C5.34967107 12.8911045 9.96260096 22.6812463 17.4375 29.625 C21.36408272 32.76896486 25.39838242 34.99202142 30 37 C29.34 38.32 28.68 39.64 28 41 C14.54605992 32.77067332 5.24229536 23.49295357 0.6875 8 C0.3471875 6.515 0.3471875 6.515 0 5 C-0.226875 4.21625 -0.45375 3.4325 -0.6875 2.625 C-0.790625 2.08875 -0.89375 1.5525 -1 1 C-0.67 0.67 -0.34 0.34 0 0 Z " fill="#65B7E8" transform="translate(206,214)"/>
<path d="M0 0 C1 3 1 3 -0.328125 5.8984375 C-0.96234375 7.04570312 -1.5965625 8.19296875 -2.25 9.375 C-7.13875517 18.62988172 -11.14347467 29.85479626 -8.375 40.375 C-8.25125 40.91125 -8.1275 41.4475 -8 42 C-8.66 42.66 -9.32 43.32 -10 44 C-12.625 43.625 -12.625 43.625 -15 43 C-15.1597014 40.20522548 -15.11128846 38.27098287 -14.0390625 35.66015625 C-12.96335645 32.906187 -12.59451637 30.55338915 -12.25 27.625 C-11.44904413 22.45402888 -10.01240917 17.88739705 -8.0625 13.0625 C-7.80952148 12.43617676 -7.55654297 11.80985352 -7.29589844 11.16455078 C-3.31531882 1.65765941 -3.31531882 1.65765941 0 0 Z " fill="#61B5E8" transform="translate(188,170)"/>
<path d="M0 0 C0.33 0.66 0.66 1.32 1 2 C1.66 2 2.32 2 3 2 C2.83886719 2.77730469 2.67773438 3.55460938 2.51171875 4.35546875 C1.85568502 9.02783111 1.81583485 13.60035515 1.8125 18.3125 C1.80025391 19.21162109 1.78800781 20.11074219 1.77539062 21.03710938 C1.69741675 29.72760967 1.69741675 29.72760967 4 38 C5.99635752 39.277229 5.99635752 39.277229 8 40 C7.67 41.32 7.34 42.64 7 44 C6.34 42.68 5.68 41.36 5 40 C4.01 40 3.02 40 2 40 C-3.09013814 26.9337972 -3.73612959 13.57682806 0 0 Z " fill="#74BEEA" transform="translate(196,194)"/>
<path d="M0 0 C2 1 2 1 3 3 C2.01 3.33 1.02 3.66 0 4 C-1.3432147 5.32337819 -2.67512435 6.6582623 -4 8 C-5.77195117 9.29818175 -7.56505084 10.56784308 -9.375 11.8125 C-14.03855187 15.14004103 -17.51120615 18.47399717 -21 23 C-21.66 22.67 -22.32 22.34 -23 22 C-20.4145532 11.89325341 -10.55673741 5.94487933 -1.99609375 0.86328125 C-1.00802734 0.43595703 -1.00802734 0.43595703 0 0 Z " fill="#F0F8FC" transform="translate(222,150)"/>
<path d="M0 0 C2.27858233 1.52281492 4.37278933 3.04230884 6.5 4.75 C7.05558594 5.18054688 7.61117188 5.61109375 8.18359375 6.0546875 C11.69578989 8.81486046 14.9835385 11.69089671 18 15 C18 15.66 18 16.32 18 17 C19.32 17.33 20.64 17.66 22 18 C22.33 19.32 22.66 20.64 23 22 C21.35 22.33 19.7 22.66 18 23 C17.649375 22.154375 17.29875 21.30875 16.9375 20.4375 C12.49849757 12.56185053 4.73476976 6.51103215 -3 2 C-6.20867885 1.23694358 -6.20867885 1.23694358 -9 1 C-5.58778298 -1.14843294 -3.82849419 -1.18591263 0 0 Z " fill="#64B6E8" transform="translate(297,141)"/>
<path d="M0 0 C0 1.65 0 3.3 0 5 C-2 6 -2 6 -4.32421875 5.37890625 C-7.85488825 4.87894283 -8.9807136 5.86649204 -11.8125 7.9375 C-12.99779297 8.78634766 -12.99779297 8.78634766 -14.20703125 9.65234375 C-15.09455078 10.31943359 -15.09455078 10.31943359 -16 11 C-16.66 10.34 -17.32 9.68 -18 9 C-7.48087432 -1.81967213 -7.48087432 -1.81967213 0 0 Z " fill="#F0F8FC" transform="translate(291,245)"/>
<path d="M0 0 C0.66 0.99 1.32 1.98 2 3 C2.99 3.66 3.98 4.32 5 5 C4.55135776 7.79354568 4.09158769 10.58444672 3.625 13.375 C3.49867188 14.1690625 3.37234375 14.963125 3.2421875 15.78125 C3.11328125 16.54179687 2.984375 17.30234375 2.8515625 18.0859375 C2.73635254 18.7876709 2.62114258 19.4894043 2.50244141 20.21240234 C2 22 2 22 0 24 C-2.625 24.625 -2.625 24.625 -5 25 C-4.67 23.68 -4.34 22.36 -4 21 C-3.34 21 -2.68 21 -2 21 C0.21211746 13.94887561 0.20177072 7.35342179 0 0 Z " fill="#74BEEA" transform="translate(331,214)"/>
<path d="M0 0 C6.93 0 13.86 0 21 0 C21.66 1.32 22.32 2.64 23 4 C22.34 4.66 21.68 5.32 21 6 C18.66716607 5.66673801 16.68723457 4.87489383 14.5 4 C9.4045975 2.54417072 4.27327202 2.3242465 -1 2 C-0.67 1.34 -0.34 0.68 0 0 Z " fill="#5BB2E7" transform="translate(247,154)"/>
<path d="M0 0 C0.33 0 0.66 0 1 0 C1.06058594 0.74765625 1.12117187 1.4953125 1.18359375 2.265625 C1.26738281 3.25046875 1.35117188 4.2353125 1.4375 5.25 C1.51871094 6.22453125 1.59992188 7.1990625 1.68359375 8.203125 C1.91072733 10.9359548 1.91072733 10.9359548 2.66015625 13.234375 C2.77230469 13.81703125 2.88445312 14.3996875 3 15 C2.34 15.66 1.68 16.32 1 17 C-1.625 16.625 -1.625 16.625 -4 16 C-4.2232717 12.09274526 -3.56414468 9.56277399 -2 6 C-1.32204472 4.00379834 -0.65266469 2.00461299 0 0 Z " fill="#79C0EB" transform="translate(177,197)"/>
<path d="M0 0 C0.33 0.66 0.66 1.32 1 2 C1.66 2 2.32 2 3 2 C2.84660156 2.95003906 2.69320312 3.90007812 2.53515625 4.87890625 C1.86791205 9.54961567 1.65596436 14.22798139 1.4375 18.9375 C1.39431641 19.81212891 1.35113281 20.68675781 1.30664062 21.58789062 C1.20153099 23.72511995 1.10036015 25.86254238 1 28 C0.67 28 0.34 28 0 28 C-0.33 24.7 -0.66 21.4 -1 18 C-1.33 18 -1.66 18 -2 18 C-1.85860519 15.74971671 -1.71171997 13.49977794 -1.5625 11.25 C-1.48128906 9.99703125 -1.40007812 8.7440625 -1.31640625 7.453125 C-1.07484478 4.81682447 -0.75716066 2.51962706 0 0 Z " fill="#71BCEA" transform="translate(164,190)"/>
<path d="M0 0 C5.07576821 -0.12505516 5.07576821 -0.12505516 7.3203125 0.12109375 C7.9803125 0.78109375 8.6403125 1.44109375 9.3203125 2.12109375 C2.0603125 3.11109375 -5.1996875 4.10109375 -12.6796875 5.12109375 C-12.0196875 3.80109375 -11.3596875 2.48109375 -10.6796875 1.12109375 C-7.0519476 0.34372091 -3.69243856 0.16685947 0 0 Z " fill="#5BB2E7" transform="translate(247.6796875,140.87890625)"/>
<path d="M0 0 C1.65 0.33 3.3 0.66 5 1 C5.3636198 5.24223102 4.5393228 7.58168085 2 11 C1.34 11 0.68 11 0 11 C-1.7578125 5.04296875 -1.7578125 5.04296875 -2 3 C-1.34 2.01 -0.68 1.02 0 0 Z " fill="#AED9F3" transform="translate(294,212)"/>
<path d="M0 0 C0.99 0.33 1.98 0.66 3 1 C3.33 1.99 3.66 2.98 4 4 C4.66 2.68 5.32 1.36 6 0 C7.32 0 8.64 0 10 0 C10.042721 1.66611905 10.04063832 3.33382885 10 5 C9 6 9 6 5.5625 6.1875 C2 6 2 6 0 4 C0 2.68 0 1.36 0 0 Z " fill="#DDEFFA" transform="translate(195,275)"/>
<path d="M0 0 C0.33 0 0.66 0 1 0 C1.70132913 6.70019789 2.11044961 13.26257354 2 20 C0 19 0 19 -1 16 C-1.09582087 13.44665565 -1.13939278 10.92731984 -1.125 8.375 C-1.12886719 7.68148437 -1.13273438 6.98796875 -1.13671875 6.2734375 C-1.12666646 1.12666646 -1.12666646 1.12666646 0 0 Z " fill="#5CB3E7" transform="translate(163,207)"/>
<path d="M0 0 C0.66 0.33 1.32 0.66 2 1 C-0.97 3.475 -0.97 3.475 -4 6 C-2.84826645 3.53199953 -1.95216435 1.95216435 0 0 Z M-8 6 C-5.9375 6.4375 -5.9375 6.4375 -4 7 C-4.33 8.65 -4.66 10.3 -5 12 C-6.65 11.67 -8.3 11.34 -10 11 C-9.125 7.125 -9.125 7.125 -8 6 Z " fill="#85C6ED" transform="translate(203,160)"/>
<path d="M0 0 C2 3 2 3 2.375 6.0625 C2.66950046 9.12643997 2.66950046 9.12643997 5.0625 10.375 C5.701875 10.58125 6.34125 10.7875 7 11 C6.67 12.32 6.34 13.64 6 15 C5.34 13.68 4.68 12.36 4 11 C3.01 11 2.02 11 1 11 C0.01 7.7 -0.98 4.4 -2 1 C-1.34 0.67 -0.68 0.34 0 0 Z " fill="#7AC1EB" transform="translate(197,223)"/>
<path d="M0 0 C1.32 0.33 2.64 0.66 4 1 C4.38218767 2.65614657 4.71395102 4.32457024 5 6 C4 7 4 7 1.4375 7.0625 C0.2309375 7.0315625 0.2309375 7.0315625 -1 7 C-1.33 6.34 -1.66 5.68 -2 5 C-1.0625 2.375 -1.0625 2.375 0 0 Z " fill="#A3D4F1" transform="translate(236,250)"/>
<path d="M0 0 C0.042721 1.66611905 0.04063832 3.33382885 0 5 C-1 6 -1 6 -3.5625 6.0625 C-4.7690625 6.0315625 -4.7690625 6.0315625 -6 6 C-6.33 4.35 -6.66 2.7 -7 1 C-4.53721199 -0.231394 -2.7204945 -0.07159196 0 0 Z " fill="#C8E5F7" transform="translate(174,245)"/>
<path d="M0 0 C0.33 0 0.66 0 1 0 C1.33 5.94 1.66 11.88 2 18 C0 17 0 17 -1 14 C-1.09449363 11.79329586 -1.12989739 9.58372095 -1.125 7.375 C-1.12886719 5.62316406 -1.12886719 5.62316406 -1.1328125 3.8359375 C-1 1 -1 1 0 0 Z " fill="#59B1E6" transform="translate(195,207)"/>
<path d="M0 0 C1.91360971 0.21648378 3.83083621 0.40256968 5.75 0.5625 C6.73484375 0.64628906 7.7196875 0.73007813 8.734375 0.81640625 C9.48203125 0.87699219 10.2296875 0.93757812 11 1 C11 1.33 11 1.66 11 2 C9.74703125 2.06058594 8.4940625 2.12117187 7.203125 2.18359375 C5.55207276 2.26802256 3.90103165 2.35266939 2.25 2.4375 C1.425 2.47681641 0.6 2.51613281 -0.25 2.55664062 C-1.04921875 2.59853516 -1.8484375 2.64042969 -2.671875 2.68359375 C-3.4050293 2.72025146 -4.13818359 2.75690918 -4.89355469 2.79467773 C-7.01177605 3.00114785 -8.9519456 3.43132086 -11 4 C-10.67 3.01 -10.34 2.02 -10 1 C-6.10769404 -0.72991376 -4.00855615 -1.08006305 0 0 Z " fill="#6FBBE9" transform="translate(247,155)"/>
<path d="M0 0 C1.65 0.33 3.3 0.66 5 1 C5.042721 2.66611905 5.04063832 4.33382885 5 6 C4 7 4 7 1.4375 7.0625 C0.2309375 7.0315625 0.2309375 7.0315625 -1 7 C-0.67 4.69 -0.34 2.38 0 0 Z " fill="#CAE6F7" transform="translate(250,272)"/>
<path d="M0 0 C2.31 0 4.62 0 7 0 C7.33 1.65 7.66 3.3 8 5 C5.69 5 3.38 5 1 5 C0.67 3.35 0.34 1.7 0 0 Z " fill="#CAE6F7" transform="translate(317,264)"/>
<path d="M0 0 C0.99 0.33 1.98 0.66 3 1 C3 2.98 3 4.96 3 7 C2.01 7.495 2.01 7.495 1 8 C0.01 7.67 -0.98 7.34 -2 7 C-2.875 5.125 -2.875 5.125 -3 3 C-1.5625 1.25 -1.5625 1.25 0 0 Z " fill="#CBE6F7" transform="translate(323,233)"/>
<path d="M0 0 C1.65 0.33 3.3 0.66 5 1 C5 2.65 5 4.3 5 6 C4.01 6.495 4.01 6.495 3 7 C0.875 6.0625 0.875 6.0625 -1 5 C-0.67 3.35 -0.34 1.7 0 0 Z " fill="#9ACFF0" transform="translate(286,244)"/>
<path d="M0 0 C0.33 0.66 0.66 1.32 1 2 C1.66 2 2.32 2 3 2 C2.54663921 6.87362847 1.2910841 9.39042389 -2 13 C-3.18771723 9.57056481 -2.80226223 7.62215325 -1.5625 4.25 C-1.27503906 3.45078125 -0.98757813 2.6515625 -0.69140625 1.828125 C-0.46324219 1.22484375 -0.23507812 0.6215625 0 0 Z " fill="#6DBBE9" transform="translate(293,221)"/>
<path d="M0 0 C1.11375 0.3403125 1.11375 0.3403125 2.25 0.6875 C1.92 2.0075 1.59 3.3275 1.25 4.6875 C-2.51687864 4.6875 -3.66190305 4.45212683 -6.75 2.6875 C-4.29511132 0.41445492 -3.41240272 -0.38777304 0 0 Z " fill="#5DB3E7" transform="translate(249.75,159.3125)"/>
<path d="M0 0 C0.33 1.32 0.66 2.64 1 4 C-1.31 4.33 -3.62 4.66 -6 5 C-6 3.35 -6 1.7 -6 0 C-3.50907189 -1.24546405 -2.58919267 -0.7767578 0 0 Z " fill="#CCE7F7" transform="translate(293,136)"/>
<path d="M0 0 C2.0625 0.4375 2.0625 0.4375 4 1 C4.33 2.32 4.66 3.64 5 5 C3.35 5.33 1.7 5.66 0 6 C-0.38218767 4.34385343 -0.71395102 2.67542976 -1 1 C-0.67 0.67 -0.34 0.34 0 0 Z " fill="#D5EBF8" transform="translate(333,212)"/>
<path d="M0 0 C2.1640625 0.0234375 2.1640625 0.0234375 4.625 0.375 C5.85089844 0.54128906 5.85089844 0.54128906 7.1015625 0.7109375 C7.72804687 0.80632812 8.35453125 0.90171875 9 1 C7.76171875 2.55078125 7.76171875 2.55078125 6 4 C3.15124622 3.79846293 0.74900747 2.85624823 -2 2 C-1.34 1.34 -0.68 0.68 0 0 Z " fill="#73BDEA" transform="translate(224,296)"/>
<path d="M0 0 C-4.455 0.495 -4.455 0.495 -9 1 C-9 0.34 -9 -0.32 -9 -1 C-9.66 -1.33 -10.32 -1.66 -11 -2 C-6.3657546 -3.48957888 -4.01235915 -2.6749061 0 0 Z " fill="#7CC2EC" transform="translate(247,164)"/>
<path d="M0 0 C-0.33 3.3 -0.66 6.6 -1 10 C-1.99 9.34 -2.98 8.68 -4 8 C-3.74438677 5.6568787 -3.40729228 3.32156597 -3 1 C-1 0 -1 0 0 0 Z " fill="#6CBAE9" transform="translate(180,190)"/>
<path d="M0 0 C2.97 0.495 2.97 0.495 6 1 C5.67 1.99 5.34 2.98 5 4 C2.36 3.67 -0.28 3.34 -3 3 C-2.01 2.67 -1.02 2.34 0 2 C0 1.34 0 0.68 0 0 Z " fill="#76BFEA" transform="translate(236,285)"/>
<path d="M0 0 C0.33 2.31 0.66 4.62 1 7 C0.34 7 -0.32 7 -1 7 C-1.33 7.66 -1.66 8.32 -2 9 C-2.33 6.36 -2.66 3.72 -3 1 C-1 0 -1 0 0 0 Z " fill="#6FBBEA" transform="translate(166,225)"/>
<path d="M0 0 C0.33 2.31 0.66 4.62 1 7 C0.34 7 -0.32 7 -1 7 C-1.33 7.66 -1.66 8.32 -2 9 C-2.33 6.36 -2.66 3.72 -3 1 C-1 0 -1 0 0 0 Z " fill="#6FBBE9" transform="translate(191,220)"/>
<path d="M0 0 C2.475 0.495 2.475 0.495 5 1 C4.67 1.99 4.34 2.98 4 4 C2.68 3.67 1.36 3.34 0 3 C0 2.01 0 1.02 0 0 Z " fill="#FBFDFE" transform="translate(235,252)"/>
<path d="M0 0 C0.99 0.33 1.98 0.66 3 1 C2.67 2.32 2.34 3.64 2 5 C1.01 5 0.02 5 -1 5 C-0.67 3.35 -0.34 1.7 0 0 Z " fill="#FAFCFE" transform="translate(287,245)"/>
<path d="M0 0 C0.99 0.33 1.98 0.66 3 1 C3 2.32 3 3.64 3 5 C1.68 4.67 0.36 4.34 -1 4 C-0.67 2.68 -0.34 1.36 0 0 Z " fill="#FAFCFE" transform="translate(175,208)"/>
<path d="M0 0 C1.32 0 2.64 0 4 0 C3.67 1.32 3.34 2.64 3 4 C1.68 3.67 0.36 3.34 -1 3 C-0.67 2.01 -0.34 1.02 0 0 Z " fill="#FBFDFE" transform="translate(195,168)"/>
</svg>
