<?xml version="1.0" standalone="no"?>
<!DOCTYPE svg PUBLIC "-//W3C//DTD SVG 20010904//EN"
 "http://www.w3.org/TR/2001/REC-SVG-20010904/DTD/svg10.dtd">
<svg version="1.0" xmlns="http://www.w3.org/2000/svg"
 width="1024.000000pt" height="648.000000pt" viewBox="0 0 1024.000000 648.000000"
 preserveAspectRatio="xMidYMid meet">

<g transform="translate(0.000000,648.000000) scale(0.100000,-0.100000)"
fill="#000000" stroke="none">
<path d="M3088 6292 l-2918 -2 0 -2753 c0 -1895 -3 -2845 -11 -3050 -7 -164
-9 -301 -5 -305 4 -4 1689 -10 3744 -14 2055 -4 3771 -8 3812 -8 41 0 585 2
1208 5 l1132 6 1 1102 c2 2488 -3 5002 -9 5009 -9 8 -3314 14 -6954 10z m2277
-58 c-367 -58 -670 -130 -990 -234 -1930 -629 -3434 -2188 -3988 -4136 -75
-260 -118 -464 -176 -814 -19 -114 -19 -97 -20 2548 l-1 2662 2663 -1 2662 -1
-150 -24z m4654 -1556 c-1 -1561 -1 -1582 -19 -1485 -189 1015 -774 1902
-1630 2471 -435 290 -882 473 -1395 571 l-120 23 1583 1 1582 1 -1 -1582z
m-3769 -1458 l-1 -3020 -3021 0 -3021 0 6 208 c40 1253 492 2495 1274 3499
225 290 562 642 838 878 847 722 1852 1193 2938 1375 305 51 572 76 830 79
l157 1 0 -3020z m360 3010 c1003 -90 1942 -595 2574 -1385 494 -617 785 -1387
813 -2148 l6 -167 -1856 0 -1857 1 0 1855 0 1854 103 0 c56 0 154 -5 217 -10z
m173 -3775 c-200 -93 -345 -235 -445 -434 l-48 -95 0 282 0 282 283 0 282 -1
-72 -34z m907 -112 l0 -148 -32 55 c-42 72 -150 180 -213 213 l-50 26 148 1
147 0 0 -147z m2307 25 c-28 -563 -292 -1128 -714 -1528 -392 -371 -907 -594
-1448 -626 l-115 -7 1 1142 1 1141 1140 0 1141 0 -6 -122z m-2848 -313 l-1
-425 -424 0 -424 0 0 40 c0 121 61 299 146 426 145 218 421 379 657 383 l48 1
-2 -425z m146 410 c87 -23 152 -62 226 -135 88 -87 149 -212 149 -307 l0 -33
-245 0 -245 0 0 245 0 245 28 0 c15 0 54 -7 87 -15z m2725 -1340 l0 -925 -917
0 -918 1 110 29 c470 123 903 395 1206 759 221 264 373 551 469 882 15 53 31
115 35 138 4 22 9 41 11 41 2 0 4 -416 4 -925z m-2690 760 l0 -75 -75 0 -75 0
0 75 0 75 75 0 75 0 0 -75z m337 30 c-9 -66 -49 -136 -107 -188 -46 -42 -93
-64 -172 -81 l-28 -6 0 160 0 160 156 0 157 0 -6 -45z m19 -272 c-4 -9 -27
-13 -82 -13 l-77 0 40 29 c41 29 112 107 115 125 1 6 4 -20 5 -58 2 -38 2 -75
-1 -83z m-356 68 l0 -68 -26 5 c-35 6 -100 71 -106 106 l-5 26 68 0 69 0 0
-69z m-130 -66 c10 -12 10 -15 -4 -15 -9 0 -16 7 -16 15 0 8 2 15 4 15 2 0 9
-7 16 -15z m490 -743 l0 -695 -92 7 c-240 18 -481 102 -688 241 -99 66 -272
234 -343 334 -153 211 -246 466 -263 714 l-7 98 696 -2 697 -1 0 -696z m-1300
73 c69 -143 155 -261 284 -391 169 -168 347 -281 562 -353 l89 -31 -517 0
-518 0 1 513 1 512 28 -84 c16 -46 47 -121 70 -166z"/>
</g>
</svg>
