<?xml version="1.0" standalone="no"?>
<!DOCTYPE svg PUBLIC "-//W3C//DTD SVG 20010904//EN"
 "http://www.w3.org/TR/2001/REC-SVG-20010904/DTD/svg10.dtd">
<svg version="1.0" xmlns="http://www.w3.org/2000/svg"
 width="600.000000pt" height="600.000000pt" viewBox="0 0 600.000000 600.000000"
 preserveAspectRatio="xMidYMid meet">

<g transform="translate(0.000000,600.000000) scale(0.100000,-0.100000)"
fill="#000000" stroke="none">
<path d="M62 3003 l3 -1828 2938 -3 2937 -2 0 1830 0 1830 -2940 0 -2940 0 2
-1827z m3017 1774 c-2 -1 -58 -13 -124 -26 -253 -49 -567 -154 -813 -272
-1030 -491 -1762 -1424 -1997 -2544 l-34 -160 0 1502 -1 1503 1483 2 c815 2
1484 2 1486 1 2 -2 2 -4 0 -6z m1969 3 l842 0 -1 -872 c-1 -779 -3 -866 -15
-808 -24 109 -102 328 -163 455 -212 445 -574 813 -1011 1031 -150 75 -289
128 -428 164 -56 15 -106 31 -110 35 -4 4 4 5 18 2 14 -4 404 -7 868 -7z
m-1378 -1780 l0 -1780 -1781 0 -1781 0 6 113 c22 361 64 608 157 915 137 457
390 918 702 1280 373 432 817 757 1333 976 387 164 876 271 1252 275 l112 1 0
-1780z m270 1770 c493 -60 952 -281 1296 -625 392 -391 611 -878 650 -1442 l7
-103 -1092 0 -1091 0 0 1090 0 1090 73 0 c40 0 111 -5 157 -10z m5 -2242 c-53
-28 -177 -152 -204 -205 -12 -24 -24 -43 -26 -43 -3 0 -5 61 -5 135 l0 135
138 0 137 -1 -40 -21z m255 -218 l0 -240 -245 0 c-189 0 -245 3 -245 13 1 38
35 148 62 199 40 76 93 135 163 183 63 44 172 84 228 85 l37 0 0 -240z m165
205 c73 -43 129 -122 142 -199 l6 -36 -137 0 -136 0 0 136 0 137 43 -7 c23 -4
60 -18 82 -31z m154 -20 c-1 -30 -3 -55 -4 -55 -1 0 -27 25 -57 55 l-55 55 59
0 59 0 -2 -55z m1366 -22 c-51 -564 -422 -1030 -953 -1197 -96 -30 -243 -56
-319 -56 l-53 0 0 665 0 665 666 0 666 0 -7 -77z m-1585 -271 c0 -24 -4 -28
-27 -27 -22 1 -29 7 -31 28 -3 24 0 27 27 27 27 0 31 -3 31 -28z m210 19 c0
-41 -52 -111 -102 -137 -53 -28 -58 -22 -58 66 l0 80 80 0 c44 0 80 -4 80 -9z
m1382 -506 l-2 -495 -488 0 -487 1 90 33 c233 85 439 230 609 429 96 113 215
331 253 463 10 35 20 64 23 64 3 0 4 -223 2 -495z m-1592 385 c0 -36 -3 -37
-30 -8 -26 29 -25 38 5 38 21 0 25 -5 25 -30z m220 -10 c0 -15 -7 -20 -25 -20
-24 0 -24 1 -7 19 22 25 32 26 32 1z m0 -470 l0 -400 -47 0 c-27 0 -85 9 -129
20 -341 81 -589 366 -630 723 l-7 57 407 0 406 0 0 -400z m-694 -80 c80 -119
227 -240 362 -296 l57 -23 -267 -1 -268 0 0 268 1 267 34 -73 c18 -39 55 -104
81 -142z"/>
</g>
</svg>
